<svg width="60" height="60" viewBox="0 0 60 60" fill="none" xmlns="http://www.w3.org/2000/svg">
<g id="carbon:heat-map">
<path id="Vector" d="M37.5 33.75H41.25V37.5H37.5V33.75ZM52.5 30H56.25V33.75H52.5V30ZM26.25 11.25H30V15H26.25V11.25ZM30 41.25H22.5V30C22.499 29.0057 22.1036 28.0525 21.4006 27.3494C20.6975 26.6464 19.7443 26.251 18.75 26.25H7.5C6.50574 26.251 5.55249 26.6464 4.84945 27.3494C4.1464 28.0525 3.75099 29.0057 3.75 30V41.25C3.75099 42.2443 4.1464 43.1975 4.84945 43.9006C5.55249 44.6036 6.50574 44.999 7.5 45H18.75V52.5C18.751 53.4943 19.1464 54.4475 19.8494 55.1506C20.5525 55.8536 21.5057 56.249 22.5 56.25H30C30.9943 56.249 31.9475 55.8536 32.6506 55.1506C33.3536 54.4475 33.749 53.4943 33.75 52.5V45C33.749 44.0057 33.3536 43.0525 32.6506 42.3494C31.9475 41.6464 30.9943 41.251 30 41.25ZM7.5 41.25V30H18.75V41.25H7.5ZM22.5 52.5V45H30V52.5H22.5ZM52.5 56.25H45C44.0057 56.249 43.0525 55.8536 42.3494 55.1506C41.6464 54.4475 41.251 53.4943 41.25 52.5V45C41.251 44.0057 41.6464 43.0525 42.3494 42.3494C43.0525 41.6464 44.0057 41.251 45 41.25H52.5C53.4943 41.251 54.4475 41.6464 55.1506 42.3494C55.8536 43.0525 56.249 44.0057 56.25 45V52.5C56.249 53.4943 55.8536 54.4475 55.1506 55.1506C54.4475 55.8536 53.4943 56.249 52.5 56.25ZM45 45V52.5H52.5V45H45ZM52.5 3.75H41.25C40.2557 3.75099 39.3025 4.1464 38.5994 4.84945C37.8964 5.55249 37.501 6.50574 37.5 7.5V18.75H33.75C32.7557 18.751 31.8025 19.1464 31.0994 19.8494C30.3964 20.5525 30.001 21.5057 30 22.5V26.25C30.001 27.2443 30.3964 28.1975 31.0994 28.9006C31.8025 29.6036 32.7557 29.999 33.75 30H37.5C38.4943 29.999 39.4475 29.6036 40.1506 28.9006C40.8536 28.1975 41.249 27.2443 41.25 26.25V22.5H52.5C53.4943 22.499 54.4475 22.1036 55.1506 21.4006C55.8536 20.6975 56.249 19.7443 56.25 18.75V7.5C56.249 6.50574 55.8536 5.55249 55.1506 4.84945C54.4475 4.1464 53.4943 3.75099 52.5 3.75ZM33.75 26.25V22.5H37.5V26.25H33.75ZM41.25 18.75V7.5H52.5V18.75H41.25ZM15 18.75H7.5C6.50574 18.749 5.55249 18.3536 4.84945 17.6506C4.1464 16.9475 3.75099 15.9943 3.75 15V7.5C3.75099 6.50574 4.1464 5.55249 4.84945 4.84945C5.55249 4.1464 6.50574 3.75099 7.5 3.75H15C15.9943 3.75099 16.9475 4.1464 17.6506 4.84945C18.3536 5.55249 18.749 6.50574 18.75 7.5V15C18.749 15.9943 18.3536 16.9475 17.6506 17.6506C16.9475 18.3536 15.9943 18.749 15 18.75ZM7.5 7.5V15H15V7.5H7.5Z" fill="#1E1E1E"/>
</g>
</svg>
