<svg width="60" height="60" viewBox="0 0 60 60" fill="none" xmlns="http://www.w3.org/2000/svg">
<g id="carbon:crop-growth">
<path id="Vector" d="M48.75 24.375C50.7384 24.3725 52.6446 23.5815 54.0506 22.1756C55.4565 20.7696 56.2475 18.8634 56.25 16.875V11.25H50.625C48.7053 11.2528 46.8605 11.9956 45.4744 13.3238C44.503 11.5613 43.077 10.0914 41.3448 9.0672C39.6125 8.04295 37.6374 7.50177 35.625 7.5H30V13.125C30.0035 16.1076 31.1899 18.9671 33.2989 21.0761C35.4079 23.1851 38.2674 24.3715 41.25 24.375H43.125V48.75H20.625V39.375H22.5C24.4884 39.3725 26.3946 38.5815 27.8006 37.1756C29.2065 35.7696 29.9975 33.8634 30 31.875V26.25H24.375C22.4553 26.2528 20.6105 26.9956 19.2244 28.3237C18.253 26.5613 16.827 25.0914 15.0948 24.0672C13.3625 23.043 11.3874 22.5018 9.375 22.5H3.75V28.125C3.75347 31.1076 4.93985 33.9671 7.04889 36.0761C9.15792 38.1851 12.0174 39.3715 15 39.375H16.875V48.75H3.75V52.5H56.25V48.75H46.875V24.375H48.75ZM46.875 18.75C46.876 17.7557 47.2714 16.8025 47.9744 16.0994C48.6775 15.3964 49.6307 15.001 50.625 15H52.5V16.875C52.499 17.8693 52.1036 18.8225 51.4006 19.5256C50.6975 20.2286 49.7443 20.624 48.75 20.625H46.875V18.75ZM20.625 33.75C20.626 32.7557 21.0214 31.8025 21.7244 31.0994C22.4275 30.3964 23.3807 30.001 24.375 30H26.25V31.875C26.249 32.8693 25.8536 33.8225 25.1506 34.5256C24.4475 35.2286 23.4943 35.624 22.5 35.625H20.625V33.75ZM16.875 35.625H15C13.0116 35.6225 11.1054 34.8315 9.69944 33.4256C8.29345 32.0196 7.50248 30.1134 7.5 28.125V26.25H9.375C11.3634 26.2525 13.2696 27.0435 14.6756 28.4494C16.0815 29.8554 16.8725 31.7616 16.875 33.75V35.625ZM43.125 20.625H41.25C39.2616 20.6225 37.3554 19.8315 35.9494 18.4256C34.5435 17.0196 33.7525 15.1134 33.75 13.125V11.25H35.625C37.6134 11.2525 39.5196 12.0435 40.9256 13.4494C42.3315 14.8554 43.1225 16.7616 43.125 18.75V20.625Z" fill="#1E1E1E"/>
</g>
</svg>
