<svg width="60" height="60" viewBox="0 0 60 60" fill="none" xmlns="http://www.w3.org/2000/svg">
<g id="mdi:hydrogen-station">
<path id="Vector" d="M15 7.5C13.6739 7.5 12.4021 8.02678 11.4645 8.96447C10.5268 9.90215 10 11.1739 10 12.5V52.5H35V33.75H38.75V46.25C38.75 47.9076 39.4085 49.4973 40.5806 50.6694C41.7527 51.8415 43.3424 52.5 45 52.5C46.6576 52.5 48.2473 51.8415 49.4194 50.6694C50.5915 49.4973 51.25 47.9076 51.25 46.25V22.5C51.25 20.775 50.55 19.2 49.425 18.075L49.45 18.05L40.15 8.75L37.5 11.4L42.775 16.675C40.425 17.575 38.75 19.825 38.75 22.5C38.75 23.3208 38.9117 24.1335 39.2258 24.8918C39.5398 25.6501 40.0002 26.3391 40.5806 26.9194C41.7527 28.0915 43.3424 28.75 45 28.75C45.9 28.75 46.725 28.55 47.5 28.225V46.25C47.5 47.625 46.375 48.75 45 48.75C43.625 48.75 42.5 47.625 42.5 46.25V35C42.5 33.6739 41.9732 32.4021 41.0355 31.4645C40.0979 30.5268 38.8261 30 37.5 30H35V12.5C35 11.1739 34.4732 9.90215 33.5355 8.96447C32.5979 8.02678 31.3261 7.5 30 7.5H15ZM15 17.5H20V27.5H25V17.5H30V42.5H25V32.5H20V42.5H15V17.5ZM45 20C46.375 20 47.5 21.125 47.5 22.5C47.5 23.875 46.375 25 45 25C43.625 25 42.5 23.875 42.5 22.5C42.5 21.125 43.625 20 45 20Z" fill="#1E1E1E"/>
</g>
</svg>
