<svg width="84" height="120" viewBox="0 0 84 120" fill="none" xmlns="http://www.w3.org/2000/svg">
<g clip-path="url(#clip0_1_36)">
<path fill-rule="evenodd" clip-rule="evenodd" d="M38.4647 22.3937C44.4522 22.8676 49.9877 24.8744 54.641 28.0039C51.3456 41.7962 33.6893 52.5026 18.3149 64.6763C13.9168 68.1595 11.2283 70.5946 9.2908 72.893C6.85752 69.7817 5.01114 66.2274 3.90112 62.3797C4.40054 61.1039 4.92183 59.9373 5.43582 58.9203C8.95361 51.9795 15.5572 45.0168 20.205 40.7919C25.8936 35.6191 33.5416 29.3582 38.4665 22.3937H38.4647Z" fill="#A1E2F8"/>
<path fill-rule="evenodd" clip-rule="evenodd" d="M41.5068 46.5078C40.0541 46.6864 38.5759 46.7812 37.074 46.7812C30.4868 46.7812 24.3189 44.9968 19.0203 41.8873C19.4268 41.5045 19.8223 41.1382 20.2032 40.79C28.0335 33.6706 39.5729 24.4934 42.6186 14.2499C44.6582 7.38934 42.7535 5.63956 42.6332 -0.00164795C62.8887 20.1846 55.7565 33.8401 41.5068 46.506V46.5078Z" fill="#2B9DD1"/>
<path fill-rule="evenodd" clip-rule="evenodd" d="M54.0395 16.6267C49.3133 20.9392 43.2547 23.9211 36.5181 24.9491C39.2831 21.5571 41.5104 17.9755 42.6186 14.2536C44.6582 7.393 42.7535 5.64322 42.6332 0.00201416C48.7392 6.08614 52.3554 11.5779 54.0395 16.6285V16.6267Z" fill="#1A4D8F" fill-opacity="0.501961"/>
<path fill-rule="evenodd" clip-rule="evenodd" d="M13.5103 47.5577C19.157 49.5681 24.0746 53.0166 27.7783 57.4403C24.6214 59.8171 21.4226 62.2175 18.3149 64.6763C6.90309 73.7132 7.00152 75.6999 1.84332 86.5303C-1.51042 78.5761 2.07663 65.5494 5.43583 58.9203C7.43896 54.9687 10.4391 51.0117 13.5121 47.5577H13.5103Z" fill="#1A4D8F"/>
<path fill-rule="evenodd" clip-rule="evenodd" d="M39.5857 87.8372C31.1558 84.0114 24.4738 77.005 21.0727 68.3527C34.721 57.3492 55.6709 43.8977 59.7045 29.1249C60.2641 29.8521 60.1055 29.4293 60.5411 30.665C62.5461 36.3464 59.5405 49.4824 56.7536 55.459C52.6744 64.2024 42.9905 75.7947 39.5857 87.839V87.8372Z" fill="#62981E"/>
<path fill-rule="evenodd" clip-rule="evenodd" d="M46.8418 47.5486C46.8454 47.7454 46.8491 47.9441 46.8491 48.1428C46.8491 65.6187 32.0726 79.7864 13.8439 79.7864C12.5315 79.7864 11.2374 79.7117 9.96521 79.5677C10.5339 78.7183 11.1591 77.8653 11.848 77.005C18.3168 68.936 34.8631 58.8893 46.8418 47.5468V47.5486Z" fill="#244D0B" fill-opacity="0.501961"/>
<path fill-rule="evenodd" clip-rule="evenodd" d="M18.6084 76.892C27.0274 76.892 34.7082 79.9158 40.5389 84.8917C37.4367 93.411 37.0321 102.262 43.6284 110.572C44.9116 112.186 45.8393 113.194 47.5089 114.434C48.4093 115.103 49.5576 115.655 50.6129 116.293C50.4124 117.058 50.181 117.815 49.9221 118.557C38.5267 121.555 21.2513 114.889 15.1872 109.946C5.08408 101.71 1.703 90.2121 11.3322 77.6666C13.6726 77.1617 16.1077 76.8938 18.6084 76.8938V76.892Z" fill="#244D0B"/>
<path fill-rule="evenodd" clip-rule="evenodd" d="M25.3123 115.425C21.9348 110.46 19.97 104.531 19.97 98.1609C19.97 81.5599 33.3047 67.9444 50.2666 66.623C41.9935 79.8174 32.0799 96.0192 43.6302 110.568C44.9134 112.183 45.8412 113.191 47.5107 114.43C48.9908 115.529 51.1397 116.313 52.4466 117.686C45.0027 120.95 33.8607 118.797 25.3141 115.425H25.3123Z" fill="#90BC2B"/>
<path fill-rule="evenodd" clip-rule="evenodd" d="M82.601 73.2174C73.3746 71.8632 65.1251 67.5015 58.8806 61.1604C62.3273 55.0835 64.9556 48.2539 65.568 37.0845C67.5037 38.7322 74.789 50.7692 76.506 54.4748C79.1963 60.28 81.6131 66.1965 82.5992 73.2174H82.601Z" fill="#EE9803"/>
<path fill-rule="evenodd" clip-rule="evenodd" d="M82.7396 85.2362C75.6584 93.9906 64.582 99.6245 52.133 99.6245C49.4482 99.6245 46.829 99.362 44.2973 98.8644C42.9595 91.2256 45.7755 83.4154 48.7337 77.8143C56.1703 63.7285 64.4198 58.0454 65.5699 37.0845C67.5056 38.7322 74.7908 50.7692 76.5078 54.4748C79.6009 61.1458 82.3313 67.9608 82.9437 76.4327C83.1679 79.5367 83.0822 82.4748 82.7396 85.2344V85.2362Z" fill="#C23104" fill-opacity="0.501961"/>
<path fill-rule="evenodd" clip-rule="evenodd" d="M69.629 84.3194C74.1675 84.3194 78.5219 85.0703 82.5682 86.4465C78.5055 112.768 50.6895 122.022 44.7712 100.953C44.0895 98.5272 43.8708 96.063 43.9838 93.6351C50.8134 87.8408 59.792 84.3194 69.629 84.3194Z" fill="#C23104"/>
<path fill-rule="evenodd" clip-rule="evenodd" d="M72.1571 106.702C66.0766 100.146 62.3802 91.5099 62.3802 82.0465C62.3802 70.6711 67.7188 60.4933 76.1232 53.6855C76.2709 53.979 76.4021 54.2433 76.5096 54.4748C79.6027 61.1458 82.3331 67.9608 82.9455 76.4327C83.9371 90.1356 78.9156 100.638 72.1589 106.702H72.1571Z" fill="#E77E01"/>
</g>
<defs>
<clipPath id="clip0_1_36">
<rect width="82.5695" height="119.304" fill="white" transform="translate(0.5)"/>
</clipPath>
</defs>
</svg>
