<svg width="128" height="70" viewBox="0 0 128 70" fill="none" xmlns="http://www.w3.org/2000/svg">
<g clip-path="url(#clip0_16_86)">
<rect x="55" y="58" width="72" height="11" fill="white"/>
<path fill-rule="evenodd" clip-rule="evenodd" d="M70.3345 32.0575C69.031 32.3567 67.6733 32.5148 66.2787 32.5148C65.3507 32.5148 64.4389 32.4445 63.5488 32.3095C63.3484 32.0664 63.1337 31.8311 62.9057 31.6026C61.0192 29.7162 58.6832 28.7727 55.8972 28.7727C55.6923 28.7727 55.4903 28.778 55.2907 28.7882C53.4855 27.4025 51.9494 25.6843 50.7743 23.7242C52.3669 23.2015 54.0745 22.9393 55.8972 22.9393C60.3087 22.9393 64.0524 24.4701 67.129 27.5317C68.5058 28.902 69.5744 30.4104 70.3349 32.0571L70.3345 32.0575Z" fill="#EE9803"/>
<path fill-rule="evenodd" clip-rule="evenodd" d="M67.1855 27.5895L67.1872 27.7049C67.1872 30.447 66.4673 33.0282 65.1995 35.2842C64.7357 33.8952 63.9711 32.668 62.9057 31.6027C61.0192 29.7162 58.6832 28.7727 55.8972 28.7727C53.1112 28.7727 50.7747 29.7162 48.8882 31.6027C48.6732 31.8173 48.3683 32.0742 48.1773 32.3026C47.3249 30.5035 45.9908 28.9053 44.9072 27.1883C45.173 26.9627 46.2611 26.1351 46.5355 25.931C49.2159 23.9381 52.3372 22.9402 55.8972 22.9402C60.3087 22.9402 64.0524 24.471 67.129 27.5326L67.1859 27.5899L67.1855 27.5895Z" fill="#C23104" fill-opacity="0.501961"/>
<path fill-rule="evenodd" clip-rule="evenodd" d="M65.7348 38.9071C67.8526 39.964 69.7045 41.4423 71.1686 43.228C70.4662 45.7872 69.12 48.0578 67.129 50.0394C64.0524 53.1014 60.3087 54.6318 55.8972 54.6318C54.0298 54.6318 52.284 54.3582 50.6584 53.8091C51.2405 51.9437 51.5283 49.9406 51.5665 47.8403C52.8636 48.45 54.307 48.7549 55.8972 48.7549C58.6832 48.7549 61.0196 47.8188 62.9057 45.9469C64.7662 44.1011 65.7088 41.7545 65.7348 38.9071Z" fill="#C23104"/>
<path fill-rule="evenodd" clip-rule="evenodd" d="M65.884 51.1641C63.7662 50.4231 61.8497 49.2821 60.2319 47.8375C61.2058 47.379 62.0968 46.7489 62.9053 45.9469C64.7922 44.0751 65.7352 41.6874 65.7352 38.7856C65.7352 35.8833 64.7922 33.4891 62.9053 31.6026C61.2176 29.9149 59.1701 28.9821 56.7621 28.8044C57.8174 26.8432 59.2831 25.1181 61.0501 23.7332C63.304 24.4766 65.3299 25.7428 67.1282 27.5322C70.2044 30.5942 71.7426 34.3452 71.7426 38.7852C71.7426 43.226 70.2044 46.977 67.1282 50.0386C66.725 50.4398 66.3096 50.8149 65.8836 51.1637L65.884 51.1641Z" fill="#E77E01"/>
<path fill-rule="evenodd" clip-rule="evenodd" d="M48.9895 57.1296L127.461 56.9516V69.4968H35.8886C41.7541 67.2587 48.5383 60.8818 48.9891 57.1292L48.9895 57.1296ZM63.6902 62.9362V64.2621H59.938V67.7648H58.3723V58.7511H64.0683V60.0648H59.938V62.9362H63.6902ZM78.2264 63.2581C78.2264 64.6316 77.7768 65.7519 76.8765 66.6189C75.9765 67.4859 74.816 67.9196 73.3942 67.9196C72.0446 67.9196 70.9085 67.4969 69.9866 66.651C69.0639 65.8059 68.603 64.6743 68.603 63.2585C68.603 61.8423 69.0712 60.7111 70.0065 59.8652C70.9427 59.0197 72.0804 58.5974 73.4218 58.5974C74.7624 58.5974 75.8981 59.0197 76.8293 59.8652C77.7606 60.7111 78.2264 61.8419 78.2264 63.2585V63.2581ZM71.1207 60.8696C70.5037 61.4493 70.1956 62.2452 70.1956 63.2581C70.1956 64.2711 70.5016 65.0653 71.1134 65.6401C71.7251 66.2153 72.4946 66.5026 73.4218 66.5026C74.3482 66.5026 75.1197 66.2149 75.7367 65.6401C76.3529 65.0649 76.6606 64.2707 76.6606 63.2581C76.6606 62.2622 76.3525 61.4704 75.7367 60.8822C75.1201 60.2941 74.353 60.0002 73.4352 60.0002C72.5088 60.0002 71.7369 60.2896 71.1211 60.8696H71.1207ZM88.6055 64.391L91.0082 67.5457V67.7644H89.4152L87.0669 64.6227H84.9882V67.7644H83.4094V58.7507H87.31C88.3087 58.7507 89.1054 59.0319 89.6989 59.5945C90.2924 60.1563 90.5899 60.8542 90.5899 61.6867C90.5899 62.3049 90.4102 62.8585 90.0501 63.3479C89.6904 63.8369 89.2091 64.1849 88.6059 64.391H88.6055ZM84.9614 63.3866H87.2966C87.8092 63.3866 88.2323 63.2276 88.5656 62.9102C88.8985 62.5927 89.0648 62.1891 89.0648 61.6997C89.0648 61.2277 88.8985 60.8351 88.5656 60.5213C88.2323 60.2079 87.8096 60.0514 87.2966 60.0514H84.9614V63.3866ZM99.6056 67.8806C98.5439 67.8806 97.6623 67.5989 96.9603 67.0372C96.2579 66.475 95.9075 65.7088 95.9075 64.7389V58.7511H97.4732V64.6999C97.4732 65.2755 97.6736 65.7259 98.0736 66.0523C98.4744 66.3787 98.9849 66.5413 99.606 66.5413C100.218 66.5413 100.721 66.3783 101.117 66.0523C101.514 65.7259 101.712 65.2755 101.712 64.6999V58.7511H103.264V64.7389C103.264 65.7088 102.915 66.475 102.218 67.0372C101.52 67.5989 100.65 67.8806 99.606 67.8806H99.6056ZM113.332 63.3866L117.165 58.725H117.745V67.7644H116.166V62.1244L113.44 65.4596H113.224L110.484 62.1244V67.7644H108.905V58.725H109.485L113.332 63.3866Z" fill="#29520E"/>
<path fill-rule="evenodd" clip-rule="evenodd" d="M92.6231 23.5295C93.5072 23.5295 94.3807 23.5718 95.2425 23.6535C96.0961 23.9429 96.9208 24.3063 97.7175 24.7445C100.068 26.0355 101.897 27.7553 103.203 29.9027L98.0655 32.8631C97.3399 31.6152 96.2444 30.599 94.7791 29.8157C93.3133 29.0316 91.6813 28.6402 89.8818 28.6402C86.9795 28.6402 84.5923 29.5906 82.7204 31.4917C80.8486 33.3928 79.9125 35.7939 79.9125 38.6961C79.9125 41.5695 80.8628 43.9422 82.7639 45.814C84.665 47.6858 87.1824 48.622 90.3171 48.622C92.6386 48.622 94.5616 48.107 96.0851 47.0761C97.6082 46.0457 98.6463 44.6311 99.1975 42.8317H89.9684V37.5206H105.249V39.8713C105.249 44.2243 103.855 47.7505 101.069 50.4495C98.2833 53.1481 94.6844 54.4981 90.2733 54.4981C85.5719 54.4981 81.6754 52.9677 78.5849 49.9056C75.4936 46.8436 73.9482 43.1073 73.9482 38.6957C73.9482 34.2643 75.4733 30.5121 78.5231 27.4387C82.6026 24.9628 87.438 23.5287 92.6231 23.5287V23.5295Z" fill="#A1E2F8"/>
<path fill-rule="evenodd" clip-rule="evenodd" d="M105.231 40.7078C102.905 41.7337 100.416 42.4569 97.8143 42.8316H89.968V37.5206H105.248V39.8712C105.248 40.1533 105.243 40.4322 105.231 40.7074L105.231 40.7078ZM79.9446 39.5952C77.8732 38.4538 75.9587 37.0633 74.2413 35.4638C74.8193 32.4014 76.2521 29.7206 78.541 27.4212C81.603 24.3449 85.3975 22.8068 89.9249 22.8068C92.7691 22.8068 95.3665 23.4523 97.7176 24.7441C100.068 26.0351 101.897 27.7549 103.203 29.9023L98.0655 32.8627C97.3399 31.6148 96.2445 30.5986 94.7791 29.8153C93.3133 29.0312 91.6813 28.6398 89.8818 28.6398C86.9796 28.6398 84.5923 29.5901 82.7205 31.4912C80.8486 33.3924 79.9125 35.7934 79.9125 38.6957C79.9125 39.001 79.9235 39.3006 79.945 39.5948L79.9446 39.5952Z" fill="#2B9DD1"/>
<path fill-rule="evenodd" clip-rule="evenodd" d="M97.5456 24.651C94.8896 25.5123 92.0439 25.979 89.0851 25.979C86.5092 25.979 84.0199 25.6233 81.666 24.964C84.0764 23.5259 86.8291 22.8068 89.9245 22.8068C92.6995 22.8068 95.2396 23.4214 97.5456 24.651Z" fill="#1A4D8F" fill-opacity="0.501961"/>
<path fill-rule="evenodd" clip-rule="evenodd" d="M74.6969 43.6865C80.4002 45.6742 85.1865 49.4934 88.2835 54.4021C84.4614 54.0233 81.2282 52.525 78.5845 49.906C76.7354 48.0744 75.4399 46.001 74.6969 43.6865Z" fill="#1A4D8F"/>
<path fill-rule="evenodd" clip-rule="evenodd" d="M114.165 48.7553H127.006V54.5017H108.157V24.0287H126.789V29.7751H114.165V36.2609H125.701V41.9203H114.165V48.7553Z" fill="#62981E"/>
<path fill-rule="evenodd" clip-rule="evenodd" d="M116.82 24.0287C116.839 24.4266 116.85 24.8274 116.85 25.2302C116.85 26.7818 116.703 28.3004 116.425 29.7751H114.164V36.2609H114.217C112.728 39.2054 110.66 41.8313 108.157 44.0035V24.0287H116.82Z" fill="#244D0B" fill-opacity="0.501961"/>
<path fill-rule="evenodd" clip-rule="evenodd" d="M108.157 52.0149C109.396 52.7518 110.567 53.5843 111.658 54.5013H108.157V52.0149Z" fill="#244D0B"/>
<path fill-rule="evenodd" clip-rule="evenodd" d="M121.749 39.9278C123.092 39.9278 124.411 40.0249 125.701 40.2107V41.9207H114.165V48.7557H127.006V54.5017H108.157V43.5369C112.128 41.246 116.777 39.9278 121.749 39.9278Z" fill="#90BC2B"/>
<path fill-rule="evenodd" clip-rule="evenodd" d="M22.2751 13.1391C25.7888 13.4175 29.0361 14.5947 31.7665 16.4312C29.8328 24.5238 19.4733 30.8055 10.4522 37.9478C7.8715 39.9912 6.29476 41.4199 5.15703 42.7686C3.72987 40.9436 2.64579 38.8583 1.9942 36.5999C2.28768 35.8512 2.59254 35.1666 2.89496 34.5703C4.95866 30.4974 8.83324 26.4131 11.5603 23.934C14.8983 20.8984 19.3855 17.2254 22.2747 13.1391H22.2751Z" fill="#A1E2F8"/>
<path fill-rule="evenodd" clip-rule="evenodd" d="M24.06 27.2883C23.2076 27.3935 22.3402 27.4488 21.4593 27.4488C17.5945 27.4488 13.9752 26.4017 10.8665 24.5774C11.1047 24.3531 11.3368 24.138 11.5611 23.934C16.1552 19.7566 22.9263 14.3723 24.7128 8.36212C25.9091 4.33633 24.7917 3.30997 24.7213 0C36.6064 11.8444 32.4209 19.8558 24.06 27.2883Z" fill="#2B9DD1"/>
<path fill-rule="evenodd" clip-rule="evenodd" d="M31.414 9.75512C28.641 12.2855 25.0868 14.0345 21.1337 14.6382C22.7556 12.6476 24.0632 10.5461 24.7128 8.36212C25.9091 4.33633 24.7916 3.30997 24.7213 0C28.304 3.57012 30.4259 6.79229 31.414 9.75512Z" fill="#1A4D8F" fill-opacity="0.501961"/>
<path fill-rule="evenodd" clip-rule="evenodd" d="M7.63373 27.9033C10.947 29.0825 13.8317 31.1059 16.0048 33.7017C14.1529 35.0967 12.2753 36.5044 10.4527 37.9478C3.75713 43.2495 3.81485 44.4153 0.787789 50.7706C-1.18039 46.103 0.924773 38.46 2.89539 34.5703C4.07012 32.2522 5.8314 29.9304 7.63373 27.9033Z" fill="#1A4D8F"/>
<path fill-rule="evenodd" clip-rule="evenodd" d="M22.9333 51.5377C17.9868 49.2927 14.0667 45.1823 12.0713 40.105C20.079 33.6493 32.3713 25.7558 34.7379 17.0884C35.0663 17.5152 34.9728 17.2669 35.2285 17.9916C36.4048 21.3252 34.6415 29.0329 33.0058 32.5392C30.6125 37.669 24.9303 44.4706 22.9333 51.5373V51.5377Z" fill="#62981E"/>
<path fill-rule="evenodd" clip-rule="evenodd" d="M27.1907 27.8988C27.1928 28.0146 27.1952 28.1309 27.1952 28.2475C27.1952 38.5018 18.525 46.8143 7.83006 46.8143C7.05978 46.8143 6.30048 46.77 5.55377 46.6863C5.88749 46.1884 6.25414 45.6872 6.65818 45.1831C10.4535 40.4489 20.1619 34.5541 27.1907 27.8992V27.8988Z" fill="#244D0B" fill-opacity="0.501961"/>
<path fill-rule="evenodd" clip-rule="evenodd" d="M10.625 45.1149C15.565 45.1149 20.0716 46.8892 23.4926 49.8081C21.6728 54.807 21.435 59.9994 25.3055 64.8751C26.0579 65.823 26.603 66.414 27.5822 67.1412C28.1106 67.5335 28.7841 67.8574 29.4032 68.2318C29.2853 68.6814 29.15 69.1244 28.9984 69.5602C22.3126 71.319 12.1758 67.4079 8.61783 64.508C2.68972 59.6754 0.706095 52.929 6.35577 45.5685C7.72926 45.2722 9.15804 45.1149 10.625 45.1149Z" fill="#244D0B"/>
<path fill-rule="evenodd" clip-rule="evenodd" d="M14.5581 67.7245C12.5761 64.8117 11.4233 61.3322 11.4233 57.5946C11.4233 47.8537 19.2477 39.8656 29.1995 39.0904C24.3449 46.8318 18.5282 56.3382 25.3059 64.8751C26.0583 65.823 26.6034 66.414 27.5826 67.1412C28.4508 67.7859 29.7117 68.2465 30.4783 69.0509C26.1111 70.9662 19.5733 69.7037 14.5581 67.7241V67.7245Z" fill="#90BC2B"/>
<path fill-rule="evenodd" clip-rule="evenodd" d="M48.1724 42.9593C42.7589 42.1646 37.9189 39.6058 34.2545 35.8853C36.2768 32.3205 37.8193 28.3126 38.1787 21.7597C39.3144 22.7267 43.5893 29.7893 44.597 31.9632C46.1758 35.3695 47.594 38.8404 48.1724 42.9597V42.9593Z" fill="#EE9803"/>
<path fill-rule="evenodd" clip-rule="evenodd" d="M48.2529 50.0113C44.0975 55.1476 37.5995 58.4539 30.295 58.4539C28.7199 58.4539 27.1826 58.3003 25.6981 58.0076C24.9132 53.5257 26.566 48.9431 28.3008 45.6571C32.664 37.3921 37.5043 34.0578 38.1787 21.7597C39.3144 22.7267 43.5894 29.7893 44.597 31.9632C46.4116 35.8772 48.0135 39.8765 48.3728 44.847C48.5045 46.668 48.4541 48.3919 48.2529 50.0117V50.0113Z" fill="#C23104" fill-opacity="0.501961"/>
<path fill-rule="evenodd" clip-rule="evenodd" d="M40.5611 49.4736C43.2239 49.4736 45.7786 49.9138 48.1529 50.721C45.7689 66.1649 29.4483 71.5942 25.9757 59.2323C25.5762 57.8092 25.4481 56.363 25.5136 54.9387C29.521 51.5385 34.7886 49.4731 40.5611 49.4731V49.4736Z" fill="#C23104"/>
<path fill-rule="evenodd" clip-rule="evenodd" d="M42.0439 62.6065C38.4758 58.7596 36.3068 53.6932 36.3068 48.1407C36.3068 41.4663 39.4396 35.4947 44.3706 31.4998C44.4576 31.6717 44.534 31.827 44.5966 31.9632C46.4111 35.8772 48.0131 39.8765 48.3724 44.847C48.9541 52.8868 46.0079 59.0494 42.0435 62.6065H42.0439Z" fill="#E77E01"/>
</g>
<defs>
<clipPath id="clip0_16_86">
<rect width="127.461" height="70" fill="white"/>
</clipPath>
</defs>
</svg>
