<svg width="14" height="10" viewBox="0 0 14 10" fill="none" xmlns="http://www.w3.org/2000/svg">
<path id="Vector" d="M1.4 9.93896C1.015 9.93896 0.685301 9.81721 0.410901 9.5737C0.136501 9.3302 -0.000465478 9.03783 1.18846e-06 8.69659V1.24237C1.18846e-06 0.900719 0.137201 0.608141 0.411601 0.364636C0.686001 0.121132 1.01547 -0.000413069 1.4 1.05464e-06H12.6C12.985 1.05464e-06 13.3147 0.121753 13.5891 0.365258C13.8635 0.608762 14.0005 0.901133 14 1.24237V8.69659C14 9.03824 13.8628 9.33082 13.5884 9.57432C13.314 9.81783 12.9845 9.93937 12.6 9.93896H1.4ZM7 5.59066L1.4 2.48474V8.69659H12.6V2.48474L7 5.59066ZM7 4.34829L12.6 1.24237H1.4L7 4.34829ZM1.4 2.48474V1.24237V8.69659V2.48474Z" fill="#1E1E1E"/>
</svg>
