<svg width="373" height="75" viewBox="0 0 373 75" fill="none" xmlns="http://www.w3.org/2000/svg">
<path d="M110.927 28.0589H99.1259V41.1708H91.7832V8.65332H99.1259V21.2407H110.927V8.65332H118.269V41.1708H110.927V28.0589Z" fill="black"/>
<path d="M140.559 27.2722H147.902L144.231 18.0939L140.559 27.2722ZM141.346 8.65332H147.902L161.276 40.9086H153.409L150.787 34.0904H137.937L135.315 40.9086H127.972L141.346 8.65332Z" fill="black"/>
<path d="M188.287 18.6184V30.4191C193.269 30.4191 194.843 28.3211 194.843 24.6498C194.843 21.503 193.269 18.6184 188.287 18.6184ZM180.944 30.4191V18.6184C176.224 18.8806 174.388 21.2407 174.388 24.3876C174.388 28.3212 176.486 30.1568 180.944 30.4191ZM180.944 37.2372C172.29 37.2372 166.521 32.7792 166.521 24.6498C166.521 16.7827 172.29 12.3246 180.944 12.0624V8.65332H188.287V12.0624C196.678 12.3246 202.71 16.7827 202.71 24.6498C202.71 32.7792 196.941 37.2372 188.287 37.2372V41.6953H180.944V37.2372Z" fill="black"/>
<path d="M209.528 8.65332H236.276V15.7337H226.573V41.1708H219.231V15.7337H209.528V8.65332Z" fill="black"/>
<path d="M260.927 34.6154C266.958 34.6154 270.367 30.1574 270.367 24.9126C270.367 18.8811 266.171 15.2098 260.927 15.2098C255.682 15.2098 251.486 19.1434 251.486 24.9126C251.748 30.4196 255.682 34.6154 260.927 34.6154ZM260.927 8.12939C270.892 8.12939 278.234 14.4231 278.234 24.9126C278.234 34.6154 270.892 41.6958 260.927 41.6958C250.962 41.6958 243.619 35.4021 243.619 24.9126C243.881 15.4721 250.699 8.12939 260.927 8.12939Z" fill="black"/>
<path d="M289.51 8.65332H307.867V15.7337H296.853V41.1708H289.51V8.65332Z" fill="#00A1DF"/>
<path d="M323.601 27.2722H330.944L327.273 18.0939L323.601 27.2722ZM324.388 8.65332H330.944L344.318 40.9086H336.451L333.829 34.0904H320.979L318.357 40.9086H311.014L324.388 8.65332Z" fill="#00A1DF"/>
<path d="M349.563 35.926L353.496 30.9435C355.332 33.0414 358.217 34.8771 360.839 34.8771C362.937 34.8771 365.297 34.0904 365.297 31.468C365.297 29.6323 363.724 28.0589 360.315 28.0589H357.43V21.2407H360.315C362.413 21.2407 364.248 20.1918 364.248 18.3561C364.248 16.2582 362.675 15.4715 360.577 15.4715C358.479 15.4715 356.643 16.5205 354.808 18.8806L350.612 13.8981C352.71 11.0135 356.906 8.65332 361.626 8.65332C367.395 8.65332 371.591 11.8002 371.591 17.8316C371.591 20.1918 370.542 22.8142 367.657 24.6498V24.9121C371.591 26.2232 372.902 28.8456 372.902 32.517C372.902 38.5484 367.133 42.2198 361.364 42.2198C354.545 41.6953 351.136 38.2862 349.563 35.926Z" fill="#00A1DF"/>
<path d="M92.0454 72.9018H94.6678V58.741H101.486V56.3809H92.0454V72.9018Z" fill="black"/>
<path d="M113.287 61.6256C113.287 63.4613 111.976 64.5102 109.878 64.5102C109.353 64.5102 108.566 64.5102 108.042 64.5102V59.0032C108.829 59.0032 109.615 59.0032 110.14 59.0032C112.238 58.741 113.287 59.79 113.287 61.6256ZM109.878 56.3809C109.353 56.3809 108.566 56.3809 107.78 56.3809C106.993 56.3809 106.206 56.3809 105.944 56.3809H105.682V72.9018H108.304V66.8704C109.091 66.8704 109.878 66.8704 110.402 66.8704C114.598 66.8704 116.434 64.248 116.434 61.6256C116.171 60.0522 115.385 56.3809 109.878 56.3809Z" fill="black"/>
<path d="M126.923 65.8214L121.154 56.3809H118.269L125.612 68.706L125.35 69.2305C124.825 70.2795 124.301 70.5417 123.776 70.5417C123.514 70.5417 123.252 70.5417 122.727 70.2795L122.465 69.755L121.416 72.1151L121.678 72.3774C122.203 72.6396 122.989 72.9018 123.776 72.9018C125.612 72.9018 126.923 71.8529 127.972 68.9683L133.741 56.3809H131.119L126.923 65.8214Z" fill="black"/>
<path d="M137.675 72.9018H140.297V58.741H148.164V72.9018H150.787V56.3809H137.675V72.9018Z" fill="black"/>
<path d="M164.948 65.5592H160.227L162.587 60.0522L164.948 65.5592ZM163.899 56.1187H161.801L154.72 72.6396H157.343L159.441 67.9194H166.259L168.357 72.6396H171.241L163.899 56.1187Z" fill="black"/>
<path d="M73.1643 25.4374C71.3287 18.6192 67.1329 12.85 61.1014 8.65418C58.2168 6.81852 55.0699 5.50732 52.1853 5.50732C50.6119 5.50732 49.0385 5.76956 47.7273 6.55627C44.3182 8.39194 42.7448 11.2766 42.7448 14.6856C42.7448 20.4549 46.1538 23.864 51.1364 28.8465C53.7587 31.4689 56.6433 34.6157 59.528 38.287C64.2482 44.5808 65.2972 53.2346 62.6748 61.1017C61.3636 64.5108 59.528 67.6577 57.1678 70.0178C63.1993 66.6087 67.6573 61.8885 70.5419 55.857C76.0489 43.794 71.8531 35.6647 69.493 30.6822C68.1818 28.0598 67.3951 26.2241 68.1818 24.9129C68.7063 23.6017 70.8042 23.6017 73.1643 25.4374Z" fill="#00A1DF"/>
<path d="M45.8916 53.7586C42.4825 48.2516 37.2378 46.416 31.993 44.3181C26.7483 42.2201 21.5035 40.1222 16.7832 34.8775C12.3252 29.6327 10.4895 22.8146 11.5385 15.7341C11.8007 13.6362 12.5874 11.5383 13.3741 9.70267V9.44043C12.8496 9.96491 12.3252 10.2271 11.8007 10.7516C4.45804 17.832 0 27.5348 0 38.0243C0 54.5453 11.014 69.2306 26.7483 73.9509C28.3217 74.4754 29.8951 74.4754 31.4685 74.4754C36.7133 74.4754 41.4336 72.1153 44.5804 67.9194C46.1538 65.8215 46.9406 63.4614 47.2028 61.1013C47.7273 58.4789 47.465 55.8565 45.8916 53.7586Z" fill="black"/>
<path d="M56.3811 40.3846C53.7587 36.7133 50.8741 33.8287 48.2517 31.2063C43.007 25.9615 38.8112 21.7657 38.8112 14.4231C38.8112 7.08042 44.0559 3.14686 49.0384 1.83567C48.7762 1.83567 48.514 1.83567 48.2517 1.57343C44.8426 0.524477 40.9091 0 37.2378 0C31.2063 0 26.2238 1.31119 21.5035 4.19581C18.0944 6.29371 15.472 10.7517 14.6853 15.9965C14.1608 19.4056 14.1608 26.2238 19.1433 32.2552C23.0769 36.9755 28.0594 38.8112 32.7797 40.6469C38.2867 42.7448 44.0559 45.1049 48.2517 51.3986C51.1363 55.8566 51.1363 61.8881 48.514 67.1329C48.2517 67.3951 48.2517 67.9196 47.9895 68.1818C47.9895 68.1818 47.9895 68.4441 47.7273 68.4441C45.6294 71.8531 42.2203 74.2133 38.8112 75C40.6468 74.7378 42.4825 74.2133 44.0559 73.6888C44.3182 73.6888 44.3182 73.6888 44.5804 73.4266C44.8426 73.4266 45.1049 73.1643 45.1049 73.1643C45.3671 72.9021 45.8916 72.9021 46.1538 72.6399C46.4161 72.6399 46.6783 72.3776 46.9405 72.3776C47.465 72.1154 47.9895 71.8531 48.7762 71.3287C48.7762 71.3287 49.0384 71.3287 49.0384 71.0664C49.5629 70.542 50.3496 70.2797 50.8741 69.7552C50.8741 69.7552 50.8741 69.7552 51.1363 69.7552C51.6608 69.2308 52.1853 68.7063 52.7098 68.1818C52.972 67.9196 52.972 67.9196 53.2343 67.6573C53.4965 67.3951 54.021 66.8706 54.2832 66.3462C54.5454 66.0839 54.8077 65.8217 55.0699 65.2972C55.3322 65.035 55.5944 64.5105 55.8566 64.2483C55.8566 63.986 56.1189 63.986 56.1189 63.7238C56.1189 63.7238 56.1189 63.7238 56.1189 63.4615C56.9056 62.1503 57.6923 60.5769 58.2168 59.0035C61.3636 53.2343 60.5769 45.8916 56.3811 40.3846Z" fill="#00A1DF"/>
</svg>
