<svg width="1200" height="628" viewBox="0 0 1200 628" fill="none" xmlns="http://www.w3.org/2000/svg">
<rect width="1200" height="628" fill="#F6F6F6"/>
<g clip-path="url(#clip0_219_37)">
<path fill-rule="evenodd" clip-rule="evenodd" d="M623.592 294.781C618.836 295.871 613.883 296.447 608.796 296.447C605.41 296.447 602.084 296.191 598.836 295.699C598.105 294.813 597.322 293.956 596.49 293.124C589.608 286.252 581.086 282.815 570.922 282.815C570.175 282.815 569.438 282.834 568.71 282.871C562.124 277.823 556.52 271.564 552.233 264.424C558.043 262.52 564.273 261.565 570.922 261.565C587.016 261.565 600.674 267.141 611.898 278.294C616.92 283.286 620.819 288.781 623.594 294.779L623.592 294.781Z" fill="#EE9803"/>
<path fill-rule="evenodd" clip-rule="evenodd" d="M612.104 278.504L612.11 278.925C612.11 288.914 609.484 298.317 604.858 306.535C603.166 301.475 600.377 297.005 596.49 293.124C589.608 286.252 581.086 282.815 570.922 282.815C560.758 282.815 552.234 286.252 545.352 293.124C544.568 293.906 543.456 294.842 542.759 295.674C539.649 289.12 534.782 283.298 530.829 277.043C531.799 276.221 535.768 273.206 536.769 272.463C546.548 265.203 557.935 261.568 570.922 261.568C587.016 261.568 600.674 267.144 611.898 278.297L612.105 278.506L612.104 278.504Z" fill="#C23104" fill-opacity="0.501961"/>
<path fill-rule="evenodd" clip-rule="evenodd" d="M606.811 319.733C614.537 323.583 621.294 328.968 626.635 335.473C624.073 344.796 619.161 353.068 611.898 360.286C600.674 371.441 587.016 377.016 570.922 377.016C564.11 377.016 557.741 376.019 551.81 374.019C553.934 367.224 554.984 359.927 555.123 352.275C559.855 354.497 565.121 355.607 570.922 355.607C581.086 355.607 589.61 352.197 596.49 345.378C603.278 338.654 606.717 330.106 606.811 319.733Z" fill="#C23104"/>
<path fill-rule="evenodd" clip-rule="evenodd" d="M607.356 364.383C599.63 361.684 592.638 357.528 586.736 352.265C590.289 350.595 593.539 348.3 596.489 345.378C603.373 338.559 606.813 329.861 606.813 319.29C606.813 308.718 603.373 299.996 596.489 293.124C590.332 286.976 582.863 283.577 574.078 282.93C577.927 275.786 583.275 269.501 589.721 264.457C597.944 267.165 605.334 271.777 611.895 278.296C623.118 289.45 628.729 303.114 628.729 319.289C628.729 335.466 623.118 349.13 611.895 360.283C610.424 361.745 608.908 363.112 607.354 364.382L607.356 364.383Z" fill="#E77E01"/>
<path fill-rule="evenodd" clip-rule="evenodd" d="M545.722 386.115L832 385.466V431.167H497.927C519.326 423.014 544.076 399.784 545.72 386.114L545.722 386.115ZM599.352 407.268V412.098H585.664V424.857H579.952V392.022H600.732V396.808H585.664V407.268H599.352ZM652.383 408.44C652.383 413.444 650.743 417.525 647.458 420.683C644.175 423.842 639.941 425.422 634.754 425.422C629.831 425.422 625.686 423.882 622.323 420.8C618.956 417.722 617.275 413.599 617.275 408.442C617.275 403.283 618.983 399.162 622.395 396.08C625.81 393 629.961 391.462 634.855 391.462C639.745 391.462 643.889 393 647.286 396.08C650.683 399.162 652.383 403.281 652.383 408.442V408.44ZM626.46 399.739C624.209 401.851 623.085 404.75 623.085 408.44C623.085 412.13 624.202 415.024 626.433 417.117C628.665 419.213 631.472 420.26 634.855 420.26C638.234 420.26 641.049 419.211 643.3 417.117C645.548 415.022 646.671 412.129 646.671 408.44C646.671 404.812 645.547 401.928 643.3 399.785C641.05 397.643 638.252 396.572 634.904 396.572C631.524 396.572 628.708 397.626 626.461 399.739H626.46ZM690.247 412.567L699.013 424.059V424.856H693.201L684.634 413.411H677.051V424.856H671.291V392.02H685.521C689.165 392.02 692.071 393.045 694.236 395.094C696.401 397.141 697.487 399.683 697.487 402.716C697.487 404.968 696.831 406.985 695.518 408.768C694.205 410.549 692.449 411.816 690.249 412.567H690.247ZM676.953 408.908H685.472C687.342 408.908 688.886 408.329 690.102 407.173C691.316 406.016 691.923 404.546 691.923 402.763C691.923 401.044 691.316 399.614 690.102 398.47C688.886 397.329 687.344 396.759 685.472 396.759H676.953V408.908ZM730.378 425.279C726.504 425.279 723.288 424.253 720.727 422.207C718.165 420.159 716.886 417.368 716.886 413.835V392.022H722.598V413.692C722.598 415.789 723.329 417.43 724.789 418.619C726.251 419.808 728.113 420.4 730.379 420.4C732.611 420.4 734.448 419.807 735.893 418.619C737.338 417.43 738.061 415.789 738.061 413.692V392.022H743.722V413.835C743.722 417.368 742.45 420.159 739.907 422.207C737.362 424.253 734.187 425.279 730.379 425.279H730.378ZM780.453 408.908L794.436 391.927H796.554V424.856H790.793V404.31L780.847 416.46H780.06L770.063 404.31V424.856H764.302V391.927H766.42L780.453 408.908Z" fill="#29520E"/>
<path fill-rule="evenodd" clip-rule="evenodd" d="M704.904 263.715C708.13 263.715 711.316 263.869 714.46 264.166C717.574 265.221 720.583 266.544 723.49 268.141C732.065 272.843 738.735 279.109 743.5 286.931L724.759 297.716C722.112 293.17 718.116 289.468 712.77 286.614C707.422 283.758 701.468 282.332 694.904 282.332C684.316 282.332 675.607 285.794 668.778 292.72C661.949 299.645 658.534 308.392 658.534 318.964C658.534 329.432 662.001 338.075 668.936 344.894C675.872 351.713 685.056 355.123 696.492 355.123C704.961 355.123 711.976 353.247 717.534 349.492C723.091 345.738 726.878 340.585 728.889 334.03H695.219V314.682H750.965V323.245C750.965 339.103 745.881 351.948 735.718 361.78C725.554 371.611 712.424 376.529 696.332 376.529C679.18 376.529 664.965 370.954 653.691 359.799C642.413 348.645 636.775 335.033 636.775 318.963C636.775 302.82 642.339 289.151 653.465 277.955C668.348 268.936 685.988 263.712 704.904 263.712V263.715Z" fill="#A1E2F8"/>
<path fill-rule="evenodd" clip-rule="evenodd" d="M750.9 326.293C742.413 330.03 733.333 332.664 723.843 334.03H695.218V314.682H750.963V323.245C750.963 324.273 750.943 325.289 750.898 326.291L750.9 326.293ZM658.651 322.24C651.094 318.082 644.11 313.016 637.844 307.19C639.953 296.034 645.18 286.268 653.531 277.891C664.701 266.685 678.544 261.082 695.061 261.082C705.437 261.082 714.913 263.433 723.49 268.139C732.065 272.842 738.735 279.107 743.5 286.93L724.759 297.714C722.112 293.168 718.116 289.466 712.77 286.613C707.422 283.757 701.468 282.331 694.904 282.331C684.316 282.331 675.607 285.793 668.778 292.718C661.949 299.644 658.534 308.39 658.534 318.963C658.534 320.075 658.574 321.166 658.652 322.238L658.651 322.24Z" fill="#2B9DD1"/>
<path fill-rule="evenodd" clip-rule="evenodd" d="M722.862 267.8C713.173 270.938 702.791 272.638 691.997 272.638C682.6 272.638 673.519 271.342 664.931 268.94C673.725 263.701 683.767 261.082 695.059 261.082C705.183 261.082 714.45 263.321 722.862 267.8Z" fill="#1A4D8F" fill-opacity="0.501961"/>
<path fill-rule="evenodd" clip-rule="evenodd" d="M639.507 337.144C660.313 344.384 677.775 358.298 689.073 376.179C675.129 374.799 663.334 369.341 653.689 359.801C646.943 353.128 642.217 345.575 639.507 337.144Z" fill="#1A4D8F"/>
<path fill-rule="evenodd" clip-rule="evenodd" d="M783.491 355.609H830.341V376.542H761.575V265.533H829.546V286.466H783.491V310.093H825.577V330.71H783.491V355.609Z" fill="#62981E"/>
<path fill-rule="evenodd" clip-rule="evenodd" d="M793.177 265.533C793.247 266.983 793.287 268.443 793.287 269.91C793.287 275.562 792.753 281.094 791.736 286.466H783.49V310.093H783.681C778.249 320.82 770.707 330.386 761.574 338.299V265.533H793.177Z" fill="#244D0B" fill-opacity="0.501961"/>
<path fill-rule="evenodd" clip-rule="evenodd" d="M761.575 367.483C766.095 370.167 770.366 373.2 774.346 376.54H761.575V367.483Z" fill="#244D0B"/>
<path fill-rule="evenodd" clip-rule="evenodd" d="M811.161 323.451C816.06 323.451 820.872 323.805 825.577 324.482V330.711H783.491V355.61H830.341V376.542H761.575V336.599C776.06 328.253 793.023 323.451 811.161 323.451Z" fill="#90BC2B"/>
<path fill-rule="evenodd" clip-rule="evenodd" d="M448.263 225.864C461.082 226.878 472.929 231.166 482.889 237.856C475.835 267.337 438.042 290.22 405.132 316.238C395.717 323.682 389.964 328.887 385.814 333.8C380.607 327.152 376.652 319.555 374.275 311.328C375.346 308.601 376.458 306.107 377.561 303.935C385.09 289.098 399.225 274.219 409.174 265.188C421.352 254.13 437.721 240.75 448.262 225.864H448.263Z" fill="#A1E2F8"/>
<path fill-rule="evenodd" clip-rule="evenodd" d="M454.775 277.407C451.665 277.791 448.501 277.992 445.287 277.992C431.188 277.992 417.984 274.178 406.643 267.532C407.512 266.715 408.358 265.931 409.177 265.188C425.937 249.97 450.639 230.356 457.156 208.462C461.521 193.797 457.444 190.058 457.188 178C500.546 221.148 485.277 250.332 454.775 277.407Z" fill="#2B9DD1"/>
<path fill-rule="evenodd" clip-rule="evenodd" d="M481.604 213.537C471.487 222.754 458.521 229.126 444.099 231.325C450.016 224.074 454.787 216.418 457.156 208.462C461.521 193.797 457.444 190.058 457.188 178C470.258 191.005 477.999 202.743 481.604 213.537Z" fill="#1A4D8F" fill-opacity="0.501961"/>
<path fill-rule="evenodd" clip-rule="evenodd" d="M394.849 279.648C406.936 283.943 417.46 291.314 425.388 300.77C418.632 305.852 411.782 310.98 405.133 316.238C380.707 335.552 380.917 339.799 369.874 362.95C362.694 345.947 370.374 318.104 377.563 303.935C381.848 295.49 388.274 287.032 394.849 279.648Z" fill="#1A4D8F"/>
<path fill-rule="evenodd" clip-rule="evenodd" d="M450.664 365.744C432.619 357.566 418.318 342.593 411.038 324.097C440.251 300.579 485.096 271.825 493.729 240.251C494.928 241.806 494.587 240.901 495.519 243.541C499.811 255.685 493.378 283.763 487.411 296.536C478.679 315.223 457.95 340 450.664 365.743V365.744Z" fill="#62981E"/>
<path fill-rule="evenodd" clip-rule="evenodd" d="M466.196 279.631C466.204 280.053 466.213 280.477 466.213 280.902C466.213 318.257 434.582 348.538 395.565 348.538C392.755 348.538 389.985 348.377 387.261 348.072C388.479 346.258 389.816 344.432 391.29 342.596C405.136 325.349 440.554 303.876 466.196 279.633V279.631Z" fill="#244D0B" fill-opacity="0.501961"/>
<path fill-rule="evenodd" clip-rule="evenodd" d="M405.762 342.347C423.784 342.347 440.225 348.81 452.705 359.444C446.066 377.654 445.198 396.569 459.319 414.331C462.063 417.784 464.052 419.937 467.624 422.586C469.552 424.015 472.009 425.195 474.268 426.559C473.838 428.196 473.344 429.81 472.791 431.398C448.4 437.805 411.419 423.557 398.439 412.994C376.812 395.389 369.576 370.813 390.187 343.999C395.198 342.92 400.41 342.347 405.762 342.347Z" fill="#244D0B"/>
<path fill-rule="evenodd" clip-rule="evenodd" d="M420.11 424.711C412.88 414.1 408.674 401.424 408.674 387.809C408.674 352.324 437.219 323.225 473.525 320.401C455.814 348.602 434.594 383.232 459.32 414.331C462.065 417.784 464.053 419.937 467.626 422.586C470.793 424.934 475.393 426.612 478.19 429.542C462.258 436.52 438.407 431.92 420.11 424.709V424.711Z" fill="#90BC2B"/>
<path fill-rule="evenodd" clip-rule="evenodd" d="M542.741 334.495C522.992 331.6 505.335 322.278 491.966 308.725C499.344 295.739 504.971 281.139 506.282 257.268C510.425 260.79 526.021 286.518 529.697 294.437C535.457 306.846 540.631 319.49 542.741 334.496V334.495Z" fill="#EE9803"/>
<path fill-rule="evenodd" clip-rule="evenodd" d="M543.034 360.184C527.875 378.895 504.169 390.939 477.521 390.939C471.775 390.939 466.167 390.38 460.751 389.313C457.887 372.987 463.917 356.293 470.246 344.322C486.164 314.214 503.822 302.068 506.282 257.268C510.425 260.79 526.021 286.518 529.697 294.437C536.317 308.696 542.161 323.265 543.472 341.371C543.952 348.005 543.769 354.285 543.034 360.186V360.184Z" fill="#C23104" fill-opacity="0.501961"/>
<path fill-rule="evenodd" clip-rule="evenodd" d="M514.974 358.225C524.688 358.225 534.008 359.829 542.67 362.77C533.973 419.029 474.432 438.808 461.764 393.775C460.306 388.591 459.839 383.322 460.078 378.134C474.698 365.747 493.915 358.224 514.974 358.224V358.225Z" fill="#C23104"/>
<path fill-rule="evenodd" clip-rule="evenodd" d="M520.383 406.067C507.366 392.053 499.453 373.597 499.453 353.37C499.453 329.056 510.882 307.302 528.871 292.749C529.189 293.376 529.467 293.941 529.696 294.437C536.316 308.695 542.16 323.265 543.471 341.371C545.593 370.659 534.844 393.109 520.382 406.067H520.383Z" fill="#E77E01"/>
</g>
<defs>
<clipPath id="clip0_219_37">
<rect width="465" height="255" fill="white" transform="translate(367 178)"/>
</clipPath>
</defs>
</svg>
