<svg width="184" height="100" viewBox="0 0 184 100" fill="none" xmlns="http://www.w3.org/2000/svg">
<g id="&#208;&#161;&#208;&#187;&#208;&#190;&#208;&#185;_x0020_1">
<g id="_1795308336464">
<g id="Group">
<path id="Vector" fill-rule="evenodd" clip-rule="evenodd" d="M101.096 45.797C99.2219 46.2244 97.2705 46.4503 95.2659 46.4503C93.932 46.4503 92.6215 46.3498 91.342 46.157C91.054 45.8098 90.7455 45.4736 90.4177 45.1472C87.7062 42.4522 84.3485 41.1045 80.344 41.1045C80.0495 41.1045 79.7592 41.112 79.4723 41.1265C76.8776 39.147 74.6697 36.6924 72.9806 33.8923C75.2697 33.1455 77.7242 32.771 80.344 32.771C86.6849 32.771 92.0659 34.9579 96.4881 39.3316C98.467 41.2891 100.003 43.4441 101.096 45.7964L101.096 45.797Z" fill="#EE9803"/>
<path id="Vector_2" fill-rule="evenodd" clip-rule="evenodd" d="M96.5694 39.4139L96.5717 39.5788C96.5717 43.4961 95.537 47.1835 93.7147 50.4064C93.0481 48.4221 91.9491 46.669 90.4178 45.147C87.7062 42.4521 84.3485 41.1043 80.344 41.1043C76.3395 41.1043 72.9812 42.4521 70.2697 45.147C69.9606 45.4536 69.5225 45.8206 69.2479 46.147C68.0227 43.5769 66.1051 41.2936 64.5475 38.8408C64.9296 38.5185 66.4937 37.3362 66.888 37.0447C70.7406 34.1976 75.2271 32.772 80.344 32.772C86.685 32.772 92.066 34.9589 96.4882 39.3326L96.57 39.4145L96.5694 39.4139Z" fill="#C23104" fill-opacity="0.501961"/>
<path id="Vector_3" fill-rule="evenodd" clip-rule="evenodd" d="M94.4842 55.582C97.5282 57.0918 100.19 59.2038 102.295 61.7548C101.285 65.4108 99.3499 68.6545 96.4882 71.4854C92.066 75.8597 86.685 78.046 80.344 78.046C77.66 78.046 75.1506 77.6552 72.8141 76.8707C73.6508 74.2059 74.0645 71.3443 74.1194 68.3438C75.9837 69.2149 78.0584 69.6504 80.344 69.6504C84.3485 69.6504 87.7068 68.3131 90.4178 65.639C93.0919 63.0021 94.4468 59.6498 94.4842 55.582Z" fill="#C23104"/>
<path id="Vector_4" fill-rule="evenodd" clip-rule="evenodd" d="M94.6986 73.092C91.6546 72.0334 88.8998 70.4034 86.5745 68.3397C87.9744 67.6847 89.2551 66.7846 90.4171 65.6389C93.1293 62.9648 94.4847 59.5538 94.4847 55.4083C94.4847 51.2622 93.1293 47.8419 90.4171 45.1469C87.9913 42.7359 85.0484 41.4032 81.5873 41.1495C83.104 38.3476 85.2108 35.8832 87.7506 33.9048C90.9903 34.9669 93.9022 36.7757 96.487 39.3319C100.909 43.7062 103.119 49.0648 103.119 55.4077C103.119 61.7517 100.909 67.1104 96.487 71.4841C95.9074 72.0572 95.3103 72.5932 94.698 73.0914L94.6986 73.092Z" fill="#E77E01"/>
</g>
<path id="Vector_5" fill-rule="evenodd" clip-rule="evenodd" d="M70.4151 81.6142L183.207 81.3599V99.2817H51.5845C60.0153 96.0844 69.7666 86.9745 70.4145 81.6136L70.4151 81.6142ZM91.5453 89.9094V91.8036H86.152V96.8074H83.9015V83.9306H92.0887V85.8074H86.152V89.9094H91.5453ZM112.439 90.3693C112.439 92.3314 111.793 93.9318 110.499 95.1704C109.205 96.409 107.537 97.0286 105.493 97.0286C103.554 97.0286 101.921 96.4247 100.595 95.2163C99.2692 94.009 98.6066 92.3924 98.6066 90.3698C98.6066 88.3467 99.2797 86.7307 100.624 85.5222C101.97 84.3144 103.605 83.7111 105.533 83.7111C107.46 83.7111 109.092 84.3144 110.431 85.5222C111.769 86.7307 112.439 88.3461 112.439 90.3698V90.3693ZM102.225 86.9571C101.339 87.7852 100.896 88.9222 100.896 90.3693C100.896 91.8163 101.336 92.951 102.215 93.7721C103.094 94.5938 104.2 95.0043 105.533 95.0043C106.864 95.0043 107.973 94.5932 108.86 93.7721C109.746 92.9504 110.188 91.8158 110.188 90.3693C110.188 88.9466 109.745 87.8154 108.86 86.9751C107.974 86.1349 106.871 85.715 105.552 85.715C104.221 85.715 103.111 86.1285 102.226 86.9571H102.225ZM127.357 91.9876L130.811 96.4944V96.8068H128.521L125.146 92.3186H122.158V96.8068H119.889V83.93H125.495C126.931 83.93 128.076 84.3318 128.929 85.1355C129.782 85.938 130.21 86.9351 130.21 88.1243C130.21 89.0075 129.951 89.7984 129.434 90.4976C128.917 91.1962 128.225 91.6932 127.358 91.9876H127.357ZM122.119 90.5528H125.476C126.213 90.5528 126.821 90.3257 127.3 89.8722C127.779 89.4187 128.017 88.8421 128.017 88.1429C128.017 87.4687 127.779 86.9078 127.3 86.4595C126.821 86.0118 126.213 85.7882 125.476 85.7882H122.119V90.5528ZM143.168 96.9729C141.642 96.9729 140.375 96.5704 139.366 95.7679C138.356 94.9648 137.853 93.8702 137.853 92.4847V83.9306H140.103V92.429C140.103 93.2512 140.391 93.8946 140.966 94.3609C141.542 94.8272 142.276 95.0595 143.169 95.0595C144.048 95.0595 144.772 94.8266 145.341 94.3609C145.911 93.8946 146.195 93.2512 146.195 92.429V83.9306H148.426V92.4847C148.426 93.8702 147.925 94.9648 146.923 95.7679C145.92 96.5704 144.669 96.9729 143.169 96.9729H143.168ZM162.898 90.5528L168.407 83.8934H169.241V96.8068H166.972V88.7497L163.053 93.5143H162.743L158.804 88.7497V96.8068H156.534V83.8934H157.369L162.898 90.5528Z" fill="#29520E"/>
<g id="Group_2">
<path id="Vector_6" fill-rule="evenodd" clip-rule="evenodd" d="M133.132 33.6135C134.403 33.6135 135.658 33.6739 136.897 33.7906C138.124 34.204 139.309 34.7232 140.455 35.3491C143.833 37.1934 146.461 39.6503 148.339 42.7181L140.955 46.9473C139.912 45.1645 138.337 43.7128 136.231 42.5938C134.124 41.4737 131.778 40.9145 129.192 40.9145C125.02 40.9145 121.589 42.2721 118.898 44.988C116.208 47.7039 114.862 51.134 114.862 55.2801C114.862 59.385 116.228 62.7745 118.961 65.4486C121.694 68.1227 125.312 69.46 129.818 69.46C133.154 69.46 135.918 68.7243 138.108 67.2516C140.297 65.7796 141.79 63.7588 142.582 61.1881H129.316V53.6008H151.28V56.9589C151.28 63.1775 149.277 68.215 145.272 72.0708C141.268 75.926 136.095 77.8544 129.755 77.8544C122.997 77.8544 117.396 75.6682 112.954 71.2938C108.511 66.9195 106.29 61.5818 106.29 55.2796C106.29 48.9489 108.482 43.5885 112.865 39.198C118.729 35.661 125.679 33.6123 133.132 33.6123V33.6135Z" fill="#A1E2F8"/>
<path id="Vector_7" fill-rule="evenodd" clip-rule="evenodd" d="M151.254 58.154C147.91 59.6197 144.333 60.6527 140.594 61.1881H129.316V53.6009H151.279V56.959C151.279 57.362 151.271 57.7603 151.253 58.1535L151.254 58.154ZM114.909 56.5647C111.931 54.9341 109.179 52.9476 106.711 50.6626C107.542 46.2876 109.601 42.458 112.891 39.173C117.292 34.7784 122.746 32.5811 129.254 32.5811C133.342 32.5811 137.075 33.5032 140.455 35.3486C143.833 37.1929 146.461 39.6498 148.338 42.7176L140.955 46.9467C139.912 45.164 138.337 43.7123 136.231 42.5933C134.124 41.4732 131.778 40.9139 129.192 40.9139C125.02 40.9139 121.589 42.2716 118.898 44.9875C116.208 47.7034 114.862 51.1335 114.862 55.2796C114.862 55.7157 114.878 56.1437 114.909 56.5641L114.909 56.5647Z" fill="#2B9DD1"/>
<path id="Vector_8" fill-rule="evenodd" clip-rule="evenodd" d="M140.207 35.2156C136.39 36.4461 132.3 37.1128 128.047 37.1128C124.344 37.1128 120.766 36.6047 117.383 35.6628C120.848 33.6083 124.804 32.5811 129.253 32.5811C133.242 32.5811 136.893 33.4591 140.207 35.2156Z" fill="#1A4D8F" fill-opacity="0.501961"/>
<path id="Vector_9" fill-rule="evenodd" clip-rule="evenodd" d="M107.366 62.4092C115.563 65.2488 122.443 70.7049 126.895 77.7173C121.401 77.1761 116.754 75.0357 112.954 71.2943C110.296 68.6777 108.434 65.7156 107.366 62.4092Z" fill="#1A4D8F"/>
</g>
<path id="Vector_10" fill-rule="evenodd" clip-rule="evenodd" d="M164.095 69.6506H182.553V77.8598H155.46V34.3267H182.24V42.5359H164.095V51.8013H180.677V59.8863H164.095V69.6506Z" fill="#62981E"/>
<path id="Vector_11" fill-rule="evenodd" clip-rule="evenodd" d="M167.911 34.3267C167.939 34.8952 167.954 35.4677 167.954 36.0432C167.954 38.2597 167.744 40.4291 167.343 42.5359H164.094V51.8013H164.17C162.029 56.0079 159.058 59.7591 155.46 62.8623V34.3267H167.911Z" fill="#244D0B" fill-opacity="0.501961"/>
<path id="Vector_12" fill-rule="evenodd" clip-rule="evenodd" d="M155.46 74.3071C157.241 75.3599 158.924 76.5492 160.492 77.8592H155.46V74.3071Z" fill="#244D0B"/>
<path id="Vector_13" fill-rule="evenodd" clip-rule="evenodd" d="M174.996 57.04C176.927 57.04 178.823 57.1788 180.677 57.4442V59.8872H164.095V69.6514H182.553V77.8601H155.46V62.196C161.167 58.9232 167.85 57.04 174.996 57.04Z" fill="#90BC2B"/>
<g id="Group_3">
<g id="Group_4">
<path id="Vector_14" fill-rule="evenodd" clip-rule="evenodd" d="M32.0173 18.7705C37.0676 19.1683 41.7352 20.85 45.6597 23.4735C42.8804 35.0345 27.99 44.0084 15.0236 54.2117C11.3142 57.1309 9.04785 59.172 7.41252 61.0987C5.3612 58.4914 3.80299 55.5125 2.86642 52.2862C3.28826 51.2165 3.72645 50.2387 4.16114 49.3868C7.1274 43.5683 12.6965 37.7335 16.6163 34.1919C21.4142 29.8553 27.8638 24.6082 32.0167 18.7705H32.0173Z" fill="#A1E2F8"/>
<path id="Vector_15" fill-rule="evenodd" clip-rule="evenodd" d="M34.5827 38.9834C33.3575 39.1338 32.1107 39.2128 30.8446 39.2128C25.2895 39.2128 20.0873 37.7169 15.6189 35.1108C15.9613 34.7903 16.2949 34.4831 16.6174 34.1916C23.2207 28.2238 32.9532 20.532 35.521 11.9459C37.2405 6.1948 35.6344 4.72855 35.5333 0C52.6163 16.9207 46.6003 28.3655 34.5827 38.9834Z" fill="#2B9DD1"/>
<path id="Vector_16" fill-rule="evenodd" clip-rule="evenodd" d="M45.153 13.936C41.1672 17.5508 36.0585 20.0495 30.3766 20.9118C32.7078 18.0682 34.5873 15.066 35.521 11.9459C37.2404 6.19479 35.6343 4.72855 35.5332 0C40.6829 5.1002 43.7327 9.70332 45.153 13.936Z" fill="#1A4D8F" fill-opacity="0.501961"/>
<path id="Vector_17" fill-rule="evenodd" clip-rule="evenodd" d="M10.9723 39.8618C15.7345 41.5464 19.881 44.4371 23.0044 48.1453C20.3426 50.1383 17.6439 52.1492 15.0241 54.2112C5.40023 61.7852 5.4832 63.4506 1.13225 72.5297C-1.69672 65.8616 1.32914 54.9429 4.16161 49.3863C5.85011 46.0746 8.38169 42.7577 10.9723 39.8618Z" fill="#1A4D8F"/>
</g>
<g id="Group_5">
<path id="Vector_18" fill-rule="evenodd" clip-rule="evenodd" d="M32.9632 73.6255C25.8534 70.4184 20.2188 64.5465 17.3507 57.2931C28.8605 48.0706 46.529 36.7941 49.9306 24.4121C50.4026 25.0218 50.2683 24.667 50.6358 25.7024C52.3266 30.4646 49.7921 41.4757 47.4411 46.4847C44.001 53.813 35.8336 63.5297 32.9632 73.625V73.6255Z" fill="#62981E"/>
<path id="Vector_19" fill-rule="evenodd" clip-rule="evenodd" d="M39.0827 39.8555C39.0856 40.021 39.0891 40.187 39.0891 40.3537C39.0891 55.0028 26.6269 66.8778 11.2546 66.8778C10.1474 66.8778 9.056 66.8146 7.98273 66.6949C8.4624 65.9836 8.9894 65.2676 9.57015 64.5475C15.0253 57.7843 28.9797 49.3631 39.0827 39.8561V39.8555Z" fill="#244D0B" fill-opacity="0.501961"/>
<path id="Vector_20" fill-rule="evenodd" clip-rule="evenodd" d="M15.2719 64.4502C22.3723 64.4502 28.85 66.9849 33.7671 71.1548C31.1514 78.2962 30.8096 85.7139 36.3729 92.6793C37.4543 94.0334 38.2378 94.8777 39.6453 95.9166C40.4048 96.477 41.3729 96.9398 42.2627 97.4746C42.0933 98.1168 41.8987 98.7498 41.6808 99.3723C32.071 101.885 17.5008 96.2975 12.3868 92.1549C3.86603 85.2511 1.01486 75.6134 9.13543 65.0982C11.1096 64.6749 13.1633 64.4502 15.2719 64.4502Z" fill="#244D0B"/>
<path id="Vector_21" fill-rule="evenodd" clip-rule="evenodd" d="M20.9251 96.7498C18.0763 92.5886 16.4193 87.6179 16.4193 82.2785C16.4193 68.3628 27.6656 56.9511 41.97 55.8438C34.9922 66.903 26.6315 80.4836 36.3734 92.6792C37.4549 94.0334 38.2383 94.8777 39.6458 95.9166C40.8938 96.8375 42.7061 97.4954 43.8081 98.6446C37.5308 101.381 28.1336 99.5772 20.9251 96.7493V96.7498Z" fill="#90BC2B"/>
</g>
<g id="Group_6">
<path id="Vector_22" fill-rule="evenodd" clip-rule="evenodd" d="M69.2408 61.3707C61.4597 60.2355 54.5029 56.58 49.2359 51.265C52.1425 46.1723 54.3598 40.4467 54.8763 31.0854C56.5087 32.4669 62.6533 42.5564 64.1017 45.6619C66.3709 50.5281 68.4094 55.4866 69.2408 61.3713V61.3707Z" fill="#EE9803"/>
<path id="Vector_23" fill-rule="evenodd" clip-rule="evenodd" d="M69.3564 71.4451C63.3836 78.7827 54.0437 83.506 43.5446 83.506C41.2806 83.506 39.071 83.2865 36.9373 82.8684C35.8091 76.4657 38.1846 69.9191 40.6782 65.2248C46.9496 53.4176 53.907 48.6542 54.8762 31.0854C56.5087 32.4669 62.6533 42.5564 64.1016 45.6619C66.7098 51.2534 69.0123 56.9668 69.5288 64.0674C69.7181 66.6689 69.6456 69.1316 69.3564 71.4457V71.4451Z" fill="#C23104" fill-opacity="0.501961"/>
<path id="Vector_24" fill-rule="evenodd" clip-rule="evenodd" d="M58.3006 70.6769C62.1281 70.6769 65.8001 71.3057 69.2127 72.459C65.7861 94.5217 42.3276 102.278 37.3363 84.618C36.762 82.585 36.578 80.519 36.672 78.4842C42.4322 73.6268 50.0036 70.6763 58.3006 70.6763V70.6769Z" fill="#C23104"/>
<path id="Vector_25" fill-rule="evenodd" clip-rule="evenodd" d="M60.4321 89.4384C55.3035 83.9428 52.1859 76.7051 52.1859 68.7728C52.1859 59.2379 56.6888 50.707 63.7764 45C63.9014 45.2456 64.0113 45.4675 64.1012 45.662C66.7093 51.2534 69.0119 56.9669 69.5284 64.0675C70.3644 75.553 66.1298 84.3568 60.4315 89.4384H60.4321Z" fill="#E77E01"/>
</g>
</g>
</g>
</g>
</svg>
