<svg width="13" height="13" viewBox="0 0 13 13" fill="none" xmlns="http://www.w3.org/2000/svg">
<path d="M12.3741 8.73985L9.31197 7.36769L9.30352 7.36379C9.14455 7.2958 8.97114 7.26851 8.79897 7.2844C8.6268 7.30029 8.46131 7.35885 8.31747 7.45479C8.30053 7.46598 8.28425 7.47813 8.26871 7.49119L6.6866 8.83995C5.6843 8.3531 4.64949 7.32609 4.16264 6.33678L5.51334 4.73061C5.52635 4.71436 5.5387 4.69811 5.5504 4.68056C5.64427 4.53711 5.70123 4.37267 5.7162 4.20188C5.73117 4.03109 5.70369 3.85925 5.6362 3.70165V3.69385L4.26014 0.626474C4.17092 0.420595 4.01751 0.249091 3.8228 0.137565C3.6281 0.026039 3.40255 -0.0195271 3.17983 0.00766854C2.29905 0.123569 1.49058 0.556123 0.905419 1.22454C0.320255 1.89296 -0.00158662 2.75153 5.88166e-06 3.6399C5.88166e-06 8.80095 4.19904 13 9.36007 13C10.2484 13.0016 11.107 12.6797 11.7754 12.0946C12.4438 11.5094 12.8764 10.7009 12.9923 9.82016C13.0195 9.59751 12.9741 9.37202 12.8627 9.17733C12.7513 8.98263 12.5799 8.82918 12.3741 8.73985ZM9.36007 11.96C7.15419 11.9576 5.03935 11.0802 3.47956 9.52043C1.91977 7.96063 1.04242 5.84579 1.04001 3.6399C1.03757 3.00517 1.26625 2.39124 1.68335 1.91278C2.10045 1.43431 2.67744 1.12403 3.30658 1.03988C3.30632 1.04247 3.30632 1.04508 3.30658 1.04768L4.67159 4.10271L3.32803 5.71082C3.31439 5.72652 3.302 5.74325 3.29098 5.76087C3.19316 5.91097 3.13578 6.08379 3.12439 6.26259C3.113 6.44138 3.148 6.62009 3.22598 6.78138C3.81488 7.98585 5.02844 9.19031 6.2459 9.77856C6.40838 9.85582 6.58812 9.8896 6.76756 9.87661C6.947 9.86362 7.12 9.80431 7.26966 9.70446C7.28635 9.69322 7.3024 9.68107 7.31776 9.66806L8.89792 8.31995L11.9529 9.68821H11.9601C11.877 10.3182 11.5671 10.8964 11.0886 11.3145C10.61 11.7327 9.99555 11.9621 9.36007 11.96Z" fill="black"/>
</svg>
